<svg width="32" height="32" viewBox="0 0 32 32" fill="none" xmlns="http://www.w3.org/2000/svg">
<path d="M20.7866 16.5333V21.96C20.7866 22.44 20.7333 22.8933 20.6133 23.3067C20.12 25.2667 18.4933 26.4933 16.2533 26.4933H12.6266L8.59996 29.1733C7.99996 29.5867 7.19996 29.1467 7.19996 28.4267V26.4933C5.83996 26.4933 4.70663 26.04 3.91996 25.2533C3.11996 24.4533 2.66663 23.32 2.66663 21.96V16.5333C2.66663 14 4.23996 12.2533 6.66663 12.0267C6.83996 12.0133 7.01329 12 7.19996 12H16.2533C18.9733 12 20.7866 13.8133 20.7866 16.5333Z" fill="#0E0F11"/>
<path d="M23.6666 20.8C25.36 20.8 26.7866 20.24 27.7733 19.24C28.7733 18.2533 29.3333 16.8267 29.3333 15.1333V8.33334C29.3333 5.20001 26.8 2.66667 23.6666 2.66667H12.3333C9.19996 2.66667 6.66663 5.20001 6.66663 8.33334V9.33334C6.66663 9.70667 6.95996 10 7.33329 10H16.2533C19.8666 10 22.7866 12.92 22.7866 16.5333V20.1333C22.7866 20.5067 23.08 20.8 23.4533 20.8H23.6666Z" fill="#0E0F11"/>
</svg>
